<svg xmlns="http://www.w3.org/2000/svg" width="850.391" height="850.39" viewBox="0 0 850.391 850.39"><path fill="#A6A6A6" d="M495.566 379.553h-64.08v-64.078h64.08v64.078zm1.253-65.332h-66.587v66.587h66.586V314.22zm-72.086 65.332h-64.076v-64.075h64.076v64.075zm1.254-65.33h-66.583v66.583h66.583v-66.583zm69.578 136.1h-64.08v-64.08h64.08v64.08zm1.253-65.334h-66.587v66.587h66.586v-66.587zm-72.084 65.334h-64.08v-64.08h64.08v64.08zm1.253-65.334h-66.587v66.587h66.586v-66.587zm-34.683-29.357h-5.682v-16.234H391c2.94 0 5.333.483 7.175 3.028 1.052 1.47 1.492 3.247 1.492 5.045 0 5.33-3.05 8.16-8.36 8.16m.264-12.59h-1.798v8.95h1.778c2.83 0 3.97-1.82 3.97-4.454 0-2.59-1.185-4.497-3.95-4.497m76.498 0v-3.644h-8.863v16.235h3.972v-6.186h4.717v-3.642h-4.717v-2.764h4.89zm-67.585 67.125h-4.278l-3.29 11.386h-.044l-3.268-11.385h-4.257l5.42 16.235h4.278l5.44-16.235zm63.28 16.542c3.93 0 7.263-2.544 8.207-6.385h-4.345c-.724 1.603-2.084 2.743-3.904 2.743-2.654 0-4.365-2.325-4.365-4.827 0-2.5 1.71-4.74 4.344-4.74 1.82 0 3.29 1.164 3.926 2.832h4.345c-.152-.942-.568-1.865-1.097-2.656-1.622-2.456-4.212-3.816-7.15-3.816-4.718 0-8.514 3.642-8.514 8.404 0 4.758 3.838 8.445 8.554 8.445m-196.838 75.75v-18.87h9.247c9.812 0 13.91 3.83 13.91 9.437 0 5.606-4.098 9.434-13.91 9.434h-9.247zm3.477-15.635v12.374h5.77c7.493 0 10.35-2.347 10.35-6.173 0-3.855-2.857-6.2-10.35-6.2h-5.77zm43.02 8.088c0 3.773-3.207 4.69-7.844 4.69-4.665 0-7.844-.917-7.844-4.69v-11.322h-3.478v11.322c0 5.58 3.774 7.95 11.32 7.95 7.55 0 11.323-2.37 11.323-7.95v-11.322h-3.477v11.322zm7.514 6.118c3.748 1.268 7.683 1.833 11.24 1.833 4.746 0 11.16-.996 11.16-6.118 0-4.528-5.012-5.04-10.322-5.256-4.018-.16-7.872-.323-7.872-2.508 0-2.426 5.014-2.56 6.36-2.56 3.695 0 6.85.458 9.653 1.078l.727-3.182c-3.208-.7-6.738-1.132-9.812-1.132-4.582 0-10.458.916-10.458 5.984 0 5.04 5.823 5.364 11.24 5.66 4.584.243 6.957.378 6.957 2.076 0 2.507-5.232 2.724-7.01 2.724-3.99 0-7.306-.594-10.918-1.698l-.945 3.1m46.662-14.206v-3.234h-21.836v3.234h9.165v15.635h3.477v-15.635h9.192zm3.445 15.636h3.478v-18.87h-3.478v18.87zm27.675-7.28l.055 2.91-15.608-14.5h-3.478v18.868h3.477V490.81l-.08-2.83 15.633 14.476h3.478v-18.87h-3.478v11.593zm39.87-.808v-3.234h-15.365v-4.313h16.983v-3.234h-20.46v18.868h3.477v-8.087h15.365zm27.295 8.087h-4.017l-2.427-4.043H446.02l-2.4 4.043h-4.016l11.134-18.87h3.987l11.162 18.87zm-17.494-8.087l-.512.81h9.705l-.485-.81-4.366-7.736-4.34 7.736zm20.562-10.782h14.96c4.043 0 7.28 1.535 7.28 6.063 0 4.45-3.29 5.96-7.254 5.96h-.7l8.734 6.846h-5.392l-8.25-6.74h-5.902v6.74h-3.477v-18.868zm15.04 8.87c2.104 0 3.64-.702 3.64-2.806 0-2.102-1.51-2.83-3.61-2.83h-11.593v5.636h11.563zm11.556-8.87h14.96c4.044 0 7.278 1.535 7.278 6.063 0 4.45-3.288 5.96-7.25 5.96h-.7l8.732 6.846h-5.392l-8.248-6.74h-5.904v6.74h-3.477v-18.868zm15.04 8.87c2.105 0 3.64-.702 3.64-2.806 0-2.102-1.51-2.83-3.612-2.83h-11.59v5.636h11.563zm32.554 10v-3.262H525.62v-4.826h15.366v-3.234H525.62v-4.313h16.982v-3.234h-20.46v18.868h21zm24.063 0v-3.262H551.03v-15.608h-3.478v18.87h19.653zm23.352 0v-3.262h-16.175v-15.608h-3.478v18.87h19.653zm-258.392 16.006L329 523.54l-3.485 5.568-3.47-5.567-3.164-5.076h-1.556l7.43 11.847h1.54l7.428-11.846h-1.557zm3.426 11.847h1.355v-11.846h-1.354v11.847zm3.933-.98c2.268.81 4.688 1.234 7.057 1.234 3.046 0 6.955-.693 6.955-3.655 0-2.743-3.266-2.962-6.616-3.114-2.86-.136-5.653-.288-5.653-2.115 0-1.997 3.367-2.2 4.77-2.2 2.32 0 4.64.34 6.313.747l.288-1.254c-1.827-.44-4.28-.762-6.38-.762-2.64 0-6.362.51-6.362 3.538 0 2.96 3.553 3.182 6.938 3.35 3.08.17 5.313.255 5.313 1.862 0 1.946-3.418 2.336-5.33 2.336-2.522 0-4.722-.44-6.922-1.17l-.372 1.203m29.197-3.76c0 2.793-2.132 3.726-5.753 3.726-3.62 0-5.754-.933-5.754-3.725v-7.105h-1.354v7.106c0 3.505 2.37 4.994 7.107 4.994 4.738 0 7.107-1.49 7.107-4.993v-7.105h-1.354v7.106zm18.787 4.74h-1.557l-1.896-2.927h-9.594l-1.878 2.927h-1.557l7.462-11.846h1.557l7.463 11.846zm-11.71-5.075l-.61.88h8.14l-.592-.88-3.47-5.586-3.47 5.585zm25.915 5.075v-1.27H390.73v-10.576h-1.355v11.846h12.337zm24.34-1.913c-1.22.373-3.148.898-5.703.898-5.264 0-7.362-2.082-7.362-4.908 0-2.825 2.098-4.907 7.36-4.907 2.556 0 4.485.525 5.703.896l.323-1.218c-.762-.253-2.877-.948-6.024-.948-6.16 0-8.733 2.656-8.733 6.177 0 3.52 2.572 6.177 8.732 6.177 3.146 0 5.26-.693 6.023-.948l-.322-1.22zm9.623-10.187c5.23 0 7.953 2.656 7.953 6.177 0 3.52-2.725 6.177-7.953 6.177-5.23 0-7.954-2.657-7.954-6.177 0-3.52 2.725-6.177 7.955-6.177m0 11.085c4.382 0 6.565-2.082 6.565-4.908 0-2.825-2.184-4.907-6.565-4.907-4.4 0-6.583 2.082-6.583 4.907 0 2.826 2.182 4.908 6.583 4.908m23.41-2.352l.016 1.658-11.456-10.136h-1.336v11.847h1.354v-8.58l-.032-1.557 11.455 10.138h1.354v-11.846h-1.355v8.48zm18.458 1.454c-1.218.373-3.146.898-5.7.898-5.266 0-7.363-2.082-7.363-4.908 0-2.825 2.098-4.907 7.362-4.907 2.555 0 4.483.525 5.7.896l.323-1.218c-.762-.253-2.877-.948-6.023-.948-6.16 0-8.732 2.656-8.732 6.177 0 3.52 2.57 6.177 8.732 6.177 3.146 0 5.262-.693 6.023-.948l-.322-1.22zm15.745 1.913v-1.27H481.46v-4.196h10.476v-1.27H481.46v-3.84h11.49v-1.27h-12.844v11.845h13.182zm2.275 0v-11.846h8.866c2.724 0 5.093 1.05 5.093 4.18s-2.37 4.196-5.094 4.196h-7.515v3.47h-1.352zm1.353-10.576v5.837h7.6c1.994 0 3.62-.742 3.62-2.925 0-2.184-1.626-2.91-3.62-2.91h-7.6zm27.76 0v-1.27h-13.708v1.27h6.177v10.576h1.354v-10.576h6.175zm1.47 9.595c2.27.81 4.688 1.234 7.056 1.234 3.047 0 6.957-.693 6.957-3.655 0-2.743-3.268-2.962-6.618-3.114-2.86-.136-5.652-.288-5.652-2.115 0-1.997 3.367-2.2 4.772-2.2 2.317 0 4.636.34 6.312.747l.287-1.254c-1.826-.44-4.28-.762-6.378-.762-2.64 0-6.363.51-6.363 3.538 0 2.96 3.554 3.182 6.937 3.35 3.08.17 5.313.255 5.313 1.862 0 1.946-3.418 2.336-5.33 2.336-2.522 0-4.722-.44-6.922-1.17l-.372 1.203"/></svg>